<svg xmlns="http://www.w3.org/2000/svg" xmlns:xlink="http://www.w3.org/1999/xlink" xmlns:lucid="lucid" width="927.27" height="310.97"><g transform="translate(-560.6333333333339 -221.19768229166664)" lucid:page-tab-id="0_0"><path d="M957.07 286a6 6 0 0 1 6-6h517.33a6 6 0 0 1 6 6v238.67a6 6 0 0 1-6 6H963.07a6 6 0 0 1-6-6z" stroke="#3a414a" stroke-width="3" fill="#cfe4ff"/><path d="M562.13 365.6h80v41.46h-80zM642.13 365.6h80v41.46h-80zM722.13 365.6h80v41.46h-80zM562.13 407.06h80v40h-80zM642.13 407.06h80v40h-80zM722.13 407.06h80v40h-80zM562.13 447.06h80v40h-80zM642.13 447.06h80v40h-80zM722.13 447.06h80v40h-80z" fill="#fff"/><path d="M562.13 365.6v41.46M562.13 365.6h80M642.13 365.6v41.46M642.13 365.6h80M722.13 365.6v41.46M802.13 365.6v41.46M722.13 365.6h80M562.13 407.06v40M562.13 407.06h80M642.13 407.06v40M642.13 407.06h80M722.13 407.06v40M802.13 407.06v40M722.13 407.06h80M562.13 447.06v40M562.13 447.06h80M562.13 487.06h80M642.13 447.06v40M642.13 447.06h80M642.13 487.06h80M722.13 447.06v40M802.13 447.06v40M722.13 447.06h80M722.13 487.06h80" stroke="#3a414a" stroke-width="3" fill="none"/><use xlink:href="#a" transform="matrix(1,0,0,1,567.1333333333339,370.6000000000001) translate(6.81640625 25.4580078125)"/><use xlink:href="#b" transform="matrix(1,0,0,1,647.1333333333339,370.6000000000001) translate(2.77294921875 25.4580078125)"/><use xlink:href="#c" transform="matrix(1,0,0,1,727.1333333333339,370.6000000000001) translate(3.26171875 25.4580078125)"/><path d="M1005.07 365.6h80v41.46h-80z" fill="#fff"/><path d="M1085.07 365.6h80v41.46h-80zM1165.07 365.6h80v41.46h-80zM1005.07 407.06h80v40h-80z" fill="#fff"/><path d="M1085.07 407.06h80v40h-80zM1165.07 407.06h80v40h-80zM1005.07 447.06h80v40h-80z" fill="#fff"/><path d="M1085.07 447.06h80v40h-80zM1165.07 447.06h80v40h-80z" fill="#fff"/><path d="M1005.07 365.6v41.46M1005.07 365.6h80M1085.07 365.6v41.46M1085.07 365.6h80M1165.07 365.6v41.46M1245.07 365.6v41.46M1165.07 365.6h80M1005.07 407.06v40M1005.07 407.06h80M1085.07 407.06v40M1085.07 407.06h80M1165.07 407.06v40M1245.07 407.06v40M1165.07 407.06h80M1005.07 447.06v40M1005.07 447.06h80M1005.07 487.06h80M1085.07 447.06v40M1085.07 447.06h80M1085.07 487.06h80M1165.07 447.06v40M1245.07 447.06v40M1165.07 447.06h80M1165.07 487.06h80" stroke="#3a414a" stroke-width="3" fill="none"/><use xlink:href="#a" transform="matrix(1,0,0,1,1010.0666666666668,370.6000000000001) translate(6.81640625 25.4580078125)"/><use xlink:href="#b" transform="matrix(1,0,0,1,1090.0666666666668,370.6000000000001) translate(2.77294921875 25.4580078125)"/><use xlink:href="#c" transform="matrix(1,0,0,1,1170.0666666666668,370.6000000000001) translate(3.26171875 25.4580078125)"/><path d="M1274.4 365.6h80v41.46h-80zM1354.4 365.6h80v41.46h-80zM1274.4 407.06h80v40h-80zM1354.4 407.06h80v40h-80zM1274.4 447.06h80v40h-80zM1354.4 447.06h80v40h-80z" fill="#fff"/><path d="M1274.4 365.6v41.46M1274.4 365.6h80M1354.4 365.6v41.46M1434.4 365.6v41.46M1354.4 365.6h80M1274.4 407.06v40M1274.4 407.06h80M1354.4 407.06v40M1434.4 407.06v40M1354.4 407.06h80M1274.4 447.06v40M1274.4 447.06h80M1274.4 487.06h80M1354.4 447.06v40M1434.4 447.06v40M1354.4 447.06h80M1354.4 487.06h80" stroke="#3a414a" stroke-width="3" fill="none"/><use xlink:href="#d" transform="matrix(1,0,0,1,1279.4,370.6000000000001) translate(3.4013671875 25.4580078125)"/><use xlink:href="#e" transform="matrix(1,0,0,1,1359.4,370.6000000000001) translate(2.30322265625 25.4580078125)"/><path d="M1090.67 311.67a6 6 0 0 1 6-6h56.8a6 6 0 0 1 6 6v29.47a6 6 0 0 1-6 6h-56.8a6 6 0 0 1-6-6z" fill="none"/><use xlink:href="#f" transform="matrix(1,0,0,1,1095.672018229167,310.6666666666667) translate(0 25.4580078125)"/><path d="M1315.96 311.67a6 6 0 0 1 6-6h64.88a6 6 0 0 1 6 6v29.47a6 6 0 0 1-6 6h-64.88a6 6 0 0 1-6-6z" fill="none"/><use xlink:href="#g" transform="matrix(1,0,0,1,1320.96189453125,310.6666666666667) translate(0 25.4580078125)"/><path d="M617 311.67a6 6 0 0 1 6-6h118.26a6 6 0 0 1 6 6v29.47a6 6 0 0 1-6 6H623a6 6 0 0 1-6-6z" fill="none"/><use xlink:href="#h" transform="matrix(1,0,0,1,622.0033333333339,310.6666666666667) translate(0 25.4580078125)"/><path d="M1132.65 227.2a6 6 0 0 1 6-6h166.17a6 6 0 0 1 6 6v29.47a6 6 0 0 1-6 6h-166.17a6 6 0 0 1-6-6z" fill="none"/><use xlink:href="#i" transform="matrix(1,0,0,1,1137.6472786458335,226.19768229166664) translate(0 25.4580078125)"/><defs><path d="M613 24c-304 0-509-231-509-576 0-350 205-580 509-580 216 0 392 114 453 309l-173 49c-33-115-133-197-280-197-223 0-326 196-326 419 0 220 103 415 326 415 150 0 252-85 285-206l172 49C1010-95 832 24 613 24" id="j"/><path d="M613 24c-304 0-509-231-509-576 0-350 205-580 509-580 305 0 511 230 511 580 0 345-206 576-511 576zm0-161c226 0 329-195 329-415 0-222-103-419-329-419-223 0-326 196-326 419 0 220 103 415 326 415" id="k"/><path d="M338-1490V0H158v-1490h180" id="l"/><path d="M934 0v166H0V0h934" id="m"/><path d="M653-1490V0H466v-1314h-10L96-1047v-204l324-239h233" id="n"/><g id="a"><use transform="matrix(0.0126953125,0,0,0.0126953125,0,0)" xlink:href="#j"/><use transform="matrix(0.0126953125,0,0,0.0126953125,14.853515625,0)" xlink:href="#k"/><use transform="matrix(0.0126953125,0,0,0.0126953125,30.443359375,0)" xlink:href="#l"/><use transform="matrix(0.0126953125,0,0,0.0126953125,36.740234375,0)" xlink:href="#m"/><use transform="matrix(0.0126953125,0,0,0.0126953125,45.7919921875,0)" xlink:href="#n"/></g><path d="M154 0v-137l495-537c165-179 249-281 249-418 0-156-121-253-280-253-170 0-278 110-278 278H158c0-264 200-443 465-443 266 0 455 183 455 416 0 161-73 288-336 568L416-179v12h687V0H154" id="o"/><g id="b"><use transform="matrix(0.0126953125,0,0,0.0126953125,0,0)" xlink:href="#j"/><use transform="matrix(0.0126953125,0,0,0.0126953125,14.853515625,0)" xlink:href="#k"/><use transform="matrix(0.0126953125,0,0,0.0126953125,30.443359375,0)" xlink:href="#l"/><use transform="matrix(0.0126953125,0,0,0.0126953125,36.740234375,0)" xlink:href="#m"/><use transform="matrix(0.0126953125,0,0,0.0126953125,48.59765625,0)" xlink:href="#o"/></g><path d="M635 20c-292 0-500-160-510-396h192c11 142 145 229 315 229 187 0 323-105 323-260 0-161-125-274-346-274H488v-165h121c174 0 294-100 294-254 0-148-104-245-266-245-152 0-291 85-297 230H157c8-234 222-395 484-395 278 0 448 188 448 400 0 168-95 291-247 336v12c190 31 301 169 301 357 0 244-216 425-508 425" id="p"/><g id="c"><use transform="matrix(0.0126953125,0,0,0.0126953125,0,0)" xlink:href="#j"/><use transform="matrix(0.0126953125,0,0,0.0126953125,14.853515625,0)" xlink:href="#k"/><use transform="matrix(0.0126953125,0,0,0.0126953125,30.443359375,0)" xlink:href="#l"/><use transform="matrix(0.0126953125,0,0,0.0126953125,36.740234375,0)" xlink:href="#m"/><use transform="matrix(0.0126953125,0,0,0.0126953125,47.4169921875,0)" xlink:href="#p"/></g><path d="M471 26C259 26 90-98 90-318c0-256 228-303 435-329 202-27 287-16 287-108 0-139-79-219-234-219-161 0-248 86-283 164l-173-57c86-203 278-265 451-265 150 0 419 46 419 395V0H815v-152h-12C765-73 660 26 471 26zm31-159c199 0 310-134 310-271v-155c-30 35-226 55-295 64-131 17-246 59-246 186 0 116 97 176 231 176" id="q"/><g id="d"><use transform="matrix(0.0126953125,0,0,0.0126953125,0,0)" xlink:href="#j"/><use transform="matrix(0.0126953125,0,0,0.0126953125,14.853515625,0)" xlink:href="#k"/><use transform="matrix(0.0126953125,0,0,0.0126953125,30.443359375,0)" xlink:href="#l"/><use transform="matrix(0.0126953125,0,0,0.0126953125,36.740234375,0)" xlink:href="#m"/><use transform="matrix(0.0126953125,0,0,0.0126953125,48.59765625,0)" xlink:href="#q"/></g><path d="M677 24c-213 0-288-135-325-197h-20V0H158v-1490h180v551h14c37-59 106-193 324-193 279 0 474 222 474 576 0 356-194 580-473 580zm-27-161c209 0 317-186 317-421 0-232-105-413-317-413-206 0-314 166-314 413 0 249 111 421 314 421" id="r"/><g id="e"><use transform="matrix(0.0126953125,0,0,0.0126953125,0,0)" xlink:href="#j"/><use transform="matrix(0.0126953125,0,0,0.0126953125,14.853515625,0)" xlink:href="#k"/><use transform="matrix(0.0126953125,0,0,0.0126953125,30.443359375,0)" xlink:href="#l"/><use transform="matrix(0.0126953125,0,0,0.0126953125,36.740234375,0)" xlink:href="#m"/><use transform="matrix(0.0126953125,0,0,0.0126953125,49.4736328125,0)" xlink:href="#r"/></g><path d="M598-1118v154H368v674c0 100 37 144 132 144 23 0 62-6 92-12L629-6c-37 13-88 20-134 20-193 0-307-107-307-290v-688H20v-154h168v-266h180v266h230" id="s"/><g id="f"><use transform="matrix(0.0126953125,0,0,0.0126953125,0,0)" xlink:href="#s"/><use transform="matrix(0.0126953125,0,0,0.0126953125,8.6328125,0)" xlink:href="#q"/><use transform="matrix(0.0126953125,0,0,0.0126953125,23.232421875,0)" xlink:href="#r"/><use transform="matrix(0.0126953125,0,0,0.0126953125,39.15234375,0)" xlink:href="#m"/><use transform="matrix(0.0126953125,0,0,0.0126953125,48.2041015625,0)" xlink:href="#n"/></g><g id="g"><use transform="matrix(0.0126953125,0,0,0.0126953125,0,0)" xlink:href="#s"/><use transform="matrix(0.0126953125,0,0,0.0126953125,8.6328125,0)" xlink:href="#q"/><use transform="matrix(0.0126953125,0,0,0.0126953125,23.232421875,0)" xlink:href="#r"/><use transform="matrix(0.0126953125,0,0,0.0126953125,39.15234375,0)" xlink:href="#m"/><use transform="matrix(0.0126953125,0,0,0.0126953125,51.009765625,0)" xlink:href="#o"/></g><path d="M98-1322v-168h1126v168H757V0H567v-1322H98" id="t"/><path d="M628 24c-324 0-524-230-524-574 0-343 198-582 503-582 237 0 487 146 487 559v75H286c9 234 145 362 343 362 132 0 231-58 273-172l174 48C1024-91 857 24 628 24zM287-650h624c-17-190-120-322-304-322-192 0-309 151-320 322" id="u"/><path d="M798-719v166H144v-166h654" id="v"/><path d="M158 0v-1118h180V0H158zm91-1301c-68 0-125-53-125-119s57-119 125-119c69 0 126 53 126 119s-57 119-126 119" id="w"/><path d="M158 0v-1490h180v865h22l478-493h223L593-638 1096 0H865L456-523 338-412V0H158" id="x"/><g id="h"><use transform="matrix(0.0126953125,0,0,0.0126953125,0,0)" xlink:href="#t"/><use transform="matrix(0.0126953125,0,0,0.0126953125,14.87890625,0)" xlink:href="#q"/><use transform="matrix(0.0126953125,0,0,0.0126953125,29.478515625,0)" xlink:href="#r"/><use transform="matrix(0.0126953125,0,0,0.0126953125,45.3984375,0)" xlink:href="#l"/><use transform="matrix(0.0126953125,0,0,0.0126953125,51.6953125,0)" xlink:href="#u"/><use transform="matrix(0.0126953125,0,0,0.0126953125,66.853515625,0)" xlink:href="#v"/><use transform="matrix(0.0126953125,0,0,0.0126953125,78.8125,0)" xlink:href="#l"/><use transform="matrix(0.0126953125,0,0,0.0126953125,85.109375,0)" xlink:href="#w"/><use transform="matrix(0.0126953125,0,0,0.0126953125,91.40625,0)" xlink:href="#x"/><use transform="matrix(0.0126953125,0,0,0.0126953125,105.091796875,0)" xlink:href="#u"/></g><path d="M645 0H180v-1490h484c435 0 692 280 692 742 0 466-257 748-711 748zM370-168h263c363 0 539-218 539-580 0-358-176-574-521-574H370v1154" id="y"/><g id="i"><use transform="matrix(0.0126953125,0,0,0.0126953125,0,0)" xlink:href="#t"/><use transform="matrix(0.0126953125,0,0,0.0126953125,14.87890625,0)" xlink:href="#q"/><use transform="matrix(0.0126953125,0,0,0.0126953125,29.478515625,0)" xlink:href="#r"/><use transform="matrix(0.0126953125,0,0,0.0126953125,45.3984375,0)" xlink:href="#l"/><use transform="matrix(0.0126953125,0,0,0.0126953125,51.6953125,0)" xlink:href="#u"/><use transform="matrix(0.0126953125,0,0,0.0126953125,66.853515625,0)" xlink:href="#y"/><use transform="matrix(0.0126953125,0,0,0.0126953125,85.6171875,0)" xlink:href="#w"/><use transform="matrix(0.0126953125,0,0,0.0126953125,91.9140625,0)" xlink:href="#j"/><use transform="matrix(0.0126953125,0,0,0.0126953125,106.767578125,0)" xlink:href="#s"/><use transform="matrix(0.0126953125,0,0,0.0126953125,114.765625,0)" xlink:href="#v"/><use transform="matrix(0.0126953125,0,0,0.0126953125,126.724609375,0)" xlink:href="#l"/><use transform="matrix(0.0126953125,0,0,0.0126953125,133.021484375,0)" xlink:href="#w"/><use transform="matrix(0.0126953125,0,0,0.0126953125,139.318359375,0)" xlink:href="#x"/><use transform="matrix(0.0126953125,0,0,0.0126953125,153.00390625,0)" xlink:href="#u"/></g></defs></g></svg>